<svg width="77" height="77" viewBox="0 0 77 77" fill="none" xmlns="http://www.w3.org/2000/svg">
<g clip-path="url(#clip0_442_2151)">
<path d="M59.4046 37.2813V24.8325L60.5957 26.0236C61.2417 26.6695 62.0886 26.9925 62.9352 26.9925C63.7819 26.9925 64.6288 26.6695 65.2748 26.0234C66.5668 24.7314 66.5668 22.6365 65.2748 21.3444L58.4356 14.5054C57.1435 13.2134 55.0488 13.2134 53.7566 14.5054L46.9174 21.3444C45.6255 22.6365 45.6255 24.7313 46.9174 26.0234C48.2096 27.3155 50.3042 27.3154 51.5965 26.0234L52.7875 24.8323V37.2811C43.7443 38.848 36.8464 46.7217 36.8464 56.1707C36.8464 66.7433 45.4818 75.3447 56.0961 75.3447C66.7103 75.3447 75.3457 66.7433 75.3457 56.1707C75.3457 46.7219 68.4479 38.8482 59.4046 37.2813ZM56.0961 68.7278C49.1306 68.7278 43.4635 63.0947 43.4635 56.1709C43.4635 49.247 49.1306 43.6139 56.0961 43.6139C63.0616 43.6139 68.7286 49.247 68.7286 56.1709C68.7286 63.0947 63.0617 68.7278 56.0961 68.7278Z" stroke="#0056D8" stroke-width="3.30853" stroke-miterlimit="10" stroke-linecap="round" stroke-linejoin="round"/>
<path d="M40.1535 20.829C40.1535 10.2565 31.5181 1.65503 20.9039 1.65503C10.2897 1.65503 1.6543 10.2565 1.6543 20.829C1.6543 30.278 8.55213 38.1517 17.5954 39.7186V47.9959H13.5378C11.7106 47.9959 10.2293 49.4773 10.2293 51.3045C10.2293 53.1317 11.7106 54.613 13.5378 54.613H17.5954V60.1549C17.5954 61.9821 19.0767 63.4635 20.9039 63.4635C22.7311 63.4635 24.2125 61.9821 24.2125 60.1549V54.613H28.2702C30.0974 54.613 31.5787 53.1317 31.5787 51.3045C31.5787 49.4773 30.0974 47.9959 28.2702 47.9959H24.2125V39.7186C33.2557 38.1517 40.1535 30.2782 40.1535 20.829ZM8.27136 20.829C8.27136 13.905 13.9384 8.27209 20.9039 8.27209C27.8694 8.27209 33.5365 13.9052 33.5365 20.829C33.5365 27.7529 27.8694 33.3859 20.9039 33.3859C13.9384 33.3859 8.27136 27.753 8.27136 20.829Z" stroke="#0F172A" stroke-width="3.30853" stroke-miterlimit="10" stroke-linecap="round" stroke-linejoin="round"/>
</g>
<defs>
<clipPath id="clip0_442_2151">
<rect width="77" height="77" fill="white"/>
</clipPath>
</defs>
</svg>
