<svg width="77" height="77" viewBox="0 0 77 77" fill="none" xmlns="http://www.w3.org/2000/svg">
<path d="M38.5 24.2954V44.924H59.0992" stroke="#0F172A" stroke-width="3.30859" stroke-miterlimit="10" stroke-linecap="round" stroke-linejoin="round"/>
<path d="M58.9591 22.7807L61.7651 19.9702" stroke="#0056D8" stroke-width="3.30859" stroke-miterlimit="10" stroke-linecap="round" stroke-linejoin="round"/>
<path d="M60.4747 17.6401L64.0916 21.2629" stroke="#0056D8" stroke-width="3.30859" stroke-miterlimit="10" stroke-linecap="round" stroke-linejoin="round"/>
<path d="M18.041 22.7807L15.235 19.9702" stroke="#0056D8" stroke-width="3.30859" stroke-miterlimit="10" stroke-linecap="round" stroke-linejoin="round"/>
<path d="M16.5253 17.6401L12.9084 21.2629" stroke="#0056D8" stroke-width="3.30859" stroke-miterlimit="10" stroke-linecap="round" stroke-linejoin="round"/>
<path d="M38.5 73.8462C54.4368 73.8462 67.3562 60.9062 67.3562 44.9439C67.3562 28.9815 54.4368 16.0415 38.5 16.0415C22.5632 16.0415 9.6438 28.9815 9.6438 44.9439C9.6438 60.9062 22.5632 73.8462 38.5 73.8462Z" stroke="#0F172A" stroke-width="3.30859" stroke-miterlimit="10" stroke-linecap="round" stroke-linejoin="round"/>
<path d="M43.1499 10.8184V15.5293" stroke="#0F172A" stroke-width="3.30859" stroke-miterlimit="10" stroke-linecap="round" stroke-linejoin="round"/>
<path d="M33.8501 15.5293V10.8184" stroke="#0F172A" stroke-width="3.30859" stroke-miterlimit="10" stroke-linecap="round" stroke-linejoin="round"/>
<path d="M48.9723 3.15381H28.0277V9.88033H48.9723V3.15381Z" stroke="#0F172A" stroke-width="3.30859" stroke-miterlimit="10" stroke-linecap="round" stroke-linejoin="round"/>
<path d="M38.5 62.7852V65.4997" stroke="#0F172A" stroke-width="3.30859" stroke-miterlimit="10" stroke-linecap="round" stroke-linejoin="round"/>
<path d="M20.3487 44.9238H17.6385" stroke="#0F172A" stroke-width="3.30859" stroke-miterlimit="10" stroke-linecap="round" stroke-linejoin="round"/>
<path d="M38.5 66.3409C50.2985 66.3409 59.8631 56.7611 59.8631 44.9437C59.8631 33.1263 50.2985 23.5464 38.5 23.5464C26.7014 23.5464 17.1368 33.1263 17.1368 44.9437C17.1368 56.7611 26.7014 66.3409 38.5 66.3409Z" stroke="#0F172A" stroke-width="3.30859" stroke-miterlimit="10" stroke-linecap="round" stroke-linejoin="round"/>
</svg>
