<svg width="77" height="77" viewBox="0 0 77 77" fill="none" xmlns="http://www.w3.org/2000/svg">
<path d="M20.1536 75.3459V20.001" stroke="#7F7CF0" stroke-width="3.30859" stroke-miterlimit="10" stroke-linecap="round" stroke-linejoin="round"/>
<path d="M33.9133 20.001V75.3459" stroke="#7F7CF0" stroke-width="3.30859" stroke-miterlimit="10" stroke-linecap="round" stroke-linejoin="round"/>
<path d="M33.9133 29.4795H29.3267" stroke="#7F7CF0" stroke-width="3.30859" stroke-miterlimit="10" stroke-linecap="round" stroke-linejoin="round"/>
<path d="M33.9133 38.6528H29.3267" stroke="#7F7CF0" stroke-width="3.30859" stroke-miterlimit="10" stroke-linecap="round" stroke-linejoin="round"/>
<path d="M33.9133 47.8262H29.3267" stroke="#7F7CF0" stroke-width="3.30859" stroke-miterlimit="10" stroke-linecap="round" stroke-linejoin="round"/>
<path d="M33.9133 56.999H29.3267" stroke="#7F7CF0" stroke-width="3.30859" stroke-miterlimit="10" stroke-linecap="round" stroke-linejoin="round"/>
<path d="M33.9133 66.1724H29.3267" stroke="#7F7CF0" stroke-width="3.30859" stroke-miterlimit="10" stroke-linecap="round" stroke-linejoin="round"/>
<path d="M38.5 10.8276H20.1536V20.0009H38.5V10.8276Z" stroke="black" stroke-width="3.30859" stroke-miterlimit="10" stroke-linecap="round" stroke-linejoin="round"/>
<path d="M52.2598 20.001H38.5" stroke="black" stroke-width="3.30859" stroke-miterlimit="10" stroke-linecap="round" stroke-linejoin="round"/>
<path d="M20.1536 10.8275V1.6543H33.9134V10.8275" stroke="black" stroke-width="3.30859" stroke-miterlimit="10" stroke-linecap="round" stroke-linejoin="round"/>
<path d="M15.5669 75.3457H47.6732" stroke="black" stroke-width="3.30859" stroke-miterlimit="10" stroke-linecap="round" stroke-linejoin="round"/>
<path d="M54.0167 38.3038C56.3571 37.3344 57.4684 34.6513 56.499 32.311C55.5296 29.9706 52.8465 28.8593 50.5061 29.8287C48.1658 30.7981 47.0544 33.4812 48.0239 35.8216C48.9933 38.1619 51.6764 39.2733 54.0167 38.3038Z" stroke="black" stroke-width="3.30859" stroke-miterlimit="10" stroke-linecap="round" stroke-linejoin="round"/>
<path d="M61.4331 43.2393H43.0867V56.9991L47.6733 61.5857V75.3455H56.8465V61.5857L61.4331 56.9991V43.2393Z" stroke="black" stroke-width="3.30859" stroke-miterlimit="10" stroke-linecap="round" stroke-linejoin="round"/>
</svg>
